<mxfile host="app.diagrams.net" modified="2023-08-30T17:04:31.819Z" agent="Mozilla/5.0 (Windows NT 10.0; Win64; x64; rv:109.0) Gecko/20100101 Firefox/116.0" etag="sQcyXQXpi4LVyMpTTT-N" version="21.7.0" type="github">
  <diagram name="Página-1" id="LII9QOye98b4dbLb6mth">
    <mxGraphModel dx="1434" dy="782" grid="1" gridSize="10" guides="1" tooltips="1" connect="1" arrows="1" fold="1" page="1" pageScale="1" pageWidth="827" pageHeight="1169" math="0" shadow="0">
      <root>
        <mxCell id="0" />
        <mxCell id="1" parent="0" />
        <mxCell id="R3BVm1DwCjUrXEctZYhF-3" value="" style="edgeStyle=orthogonalEdgeStyle;rounded=0;orthogonalLoop=1;jettySize=auto;html=1;" edge="1" parent="1" source="R3BVm1DwCjUrXEctZYhF-1" target="R3BVm1DwCjUrXEctZYhF-2">
          <mxGeometry relative="1" as="geometry" />
        </mxCell>
        <mxCell id="R3BVm1DwCjUrXEctZYhF-1" value="&lt;div&gt;somar dois números&lt;/div&gt;" style="rounded=1;whiteSpace=wrap;html=1;fillColor=#fff2cc;strokeColor=#d6b656;" vertex="1" parent="1">
          <mxGeometry x="120" y="80" width="160" height="80" as="geometry" />
        </mxCell>
        <mxCell id="R3BVm1DwCjUrXEctZYhF-9" value="" style="edgeStyle=orthogonalEdgeStyle;rounded=0;orthogonalLoop=1;jettySize=auto;html=1;" edge="1" parent="1" source="R3BVm1DwCjUrXEctZYhF-2" target="R3BVm1DwCjUrXEctZYhF-6">
          <mxGeometry relative="1" as="geometry" />
        </mxCell>
        <mxCell id="R3BVm1DwCjUrXEctZYhF-2" value="pedir uma entrada do usuário e armazenar na variável A" style="rounded=0;whiteSpace=wrap;html=1;fillColor=#dae8fc;strokeColor=#6c8ebf;" vertex="1" parent="1">
          <mxGeometry x="140" y="250" width="120" height="60" as="geometry" />
        </mxCell>
        <mxCell id="R3BVm1DwCjUrXEctZYhF-15" value="" style="edgeStyle=orthogonalEdgeStyle;rounded=0;orthogonalLoop=1;jettySize=auto;html=1;" edge="1" parent="1" source="R3BVm1DwCjUrXEctZYhF-5" target="R3BVm1DwCjUrXEctZYhF-14">
          <mxGeometry relative="1" as="geometry" />
        </mxCell>
        <mxCell id="R3BVm1DwCjUrXEctZYhF-5" value="pedir uma entrada do usuário e armazenar na variável B" style="rounded=0;whiteSpace=wrap;html=1;fillColor=#dae8fc;strokeColor=#6c8ebf;" vertex="1" parent="1">
          <mxGeometry x="400" y="410" width="120" height="60" as="geometry" />
        </mxCell>
        <mxCell id="R3BVm1DwCjUrXEctZYhF-8" value="" style="edgeStyle=orthogonalEdgeStyle;rounded=0;orthogonalLoop=1;jettySize=auto;html=1;" edge="1" parent="1" source="R3BVm1DwCjUrXEctZYhF-6" target="R3BVm1DwCjUrXEctZYhF-5">
          <mxGeometry relative="1" as="geometry">
            <mxPoint x="495" y="440" as="targetPoint" />
          </mxGeometry>
        </mxCell>
        <mxCell id="R3BVm1DwCjUrXEctZYhF-11" style="edgeStyle=orthogonalEdgeStyle;rounded=0;orthogonalLoop=1;jettySize=auto;html=1;entryX=0;entryY=0.5;entryDx=0;entryDy=0;exitX=0;exitY=0.5;exitDx=0;exitDy=0;" edge="1" parent="1" source="R3BVm1DwCjUrXEctZYhF-6" target="R3BVm1DwCjUrXEctZYhF-2">
          <mxGeometry relative="1" as="geometry">
            <mxPoint x="45" y="278" as="targetPoint" />
            <mxPoint x="60" y="438" as="sourcePoint" />
            <Array as="points">
              <mxPoint x="40" y="440" />
              <mxPoint x="40" y="280" />
            </Array>
          </mxGeometry>
        </mxCell>
        <mxCell id="R3BVm1DwCjUrXEctZYhF-6" value="A é um número inteiro?" style="rhombus;whiteSpace=wrap;html=1;fillColor=#e1d5e7;strokeColor=#9673a6;" vertex="1" parent="1">
          <mxGeometry x="95" y="380" width="210" height="120" as="geometry" />
        </mxCell>
        <mxCell id="R3BVm1DwCjUrXEctZYhF-10" value="sim" style="text;html=1;align=center;verticalAlign=middle;resizable=0;points=[];autosize=1;strokeColor=none;fillColor=none;" vertex="1" parent="1">
          <mxGeometry x="320" y="410" width="40" height="30" as="geometry" />
        </mxCell>
        <mxCell id="R3BVm1DwCjUrXEctZYhF-12" value="&lt;div&gt;não&lt;/div&gt;" style="text;html=1;align=center;verticalAlign=middle;resizable=0;points=[];autosize=1;strokeColor=none;fillColor=none;" vertex="1" parent="1">
          <mxGeometry x="40" y="330" width="40" height="30" as="geometry" />
        </mxCell>
        <mxCell id="R3BVm1DwCjUrXEctZYhF-17" value="" style="edgeStyle=orthogonalEdgeStyle;rounded=0;orthogonalLoop=1;jettySize=auto;html=1;" edge="1" parent="1" source="R3BVm1DwCjUrXEctZYhF-14" target="R3BVm1DwCjUrXEctZYhF-16">
          <mxGeometry relative="1" as="geometry" />
        </mxCell>
        <mxCell id="R3BVm1DwCjUrXEctZYhF-19" style="edgeStyle=orthogonalEdgeStyle;rounded=0;orthogonalLoop=1;jettySize=auto;html=1;entryX=0.5;entryY=0;entryDx=0;entryDy=0;" edge="1" parent="1" source="R3BVm1DwCjUrXEctZYhF-14" target="R3BVm1DwCjUrXEctZYhF-5">
          <mxGeometry relative="1" as="geometry">
            <mxPoint x="460" y="320" as="targetPoint" />
            <Array as="points">
              <mxPoint x="705" y="280" />
              <mxPoint x="460" y="280" />
            </Array>
          </mxGeometry>
        </mxCell>
        <mxCell id="R3BVm1DwCjUrXEctZYhF-14" value="B é um número inteiro?" style="rhombus;whiteSpace=wrap;html=1;fillColor=#e1d5e7;strokeColor=#9673a6;" vertex="1" parent="1">
          <mxGeometry x="600" y="380" width="210" height="120" as="geometry" />
        </mxCell>
        <mxCell id="R3BVm1DwCjUrXEctZYhF-22" value="" style="edgeStyle=orthogonalEdgeStyle;rounded=0;orthogonalLoop=1;jettySize=auto;html=1;" edge="1" parent="1" source="R3BVm1DwCjUrXEctZYhF-16" target="R3BVm1DwCjUrXEctZYhF-21">
          <mxGeometry relative="1" as="geometry" />
        </mxCell>
        <mxCell id="R3BVm1DwCjUrXEctZYhF-16" value="Some A e B e armazene o resultado na variável C" style="whiteSpace=wrap;html=1;fillColor=#dae8fc;strokeColor=#6c8ebf;" vertex="1" parent="1">
          <mxGeometry x="645" y="600" width="120" height="60" as="geometry" />
        </mxCell>
        <mxCell id="R3BVm1DwCjUrXEctZYhF-18" value="&lt;div&gt;Sim&lt;/div&gt;" style="text;html=1;align=center;verticalAlign=middle;resizable=0;points=[];autosize=1;strokeColor=none;fillColor=none;" vertex="1" parent="1">
          <mxGeometry x="645" y="530" width="50" height="30" as="geometry" />
        </mxCell>
        <mxCell id="R3BVm1DwCjUrXEctZYhF-20" value="&lt;div&gt;Não&lt;/div&gt;" style="text;html=1;align=center;verticalAlign=middle;resizable=0;points=[];autosize=1;strokeColor=none;fillColor=none;" vertex="1" parent="1">
          <mxGeometry x="645" y="328" width="50" height="30" as="geometry" />
        </mxCell>
        <mxCell id="R3BVm1DwCjUrXEctZYhF-24" value="" style="edgeStyle=orthogonalEdgeStyle;rounded=0;orthogonalLoop=1;jettySize=auto;html=1;" edge="1" parent="1" source="R3BVm1DwCjUrXEctZYhF-21" target="R3BVm1DwCjUrXEctZYhF-23">
          <mxGeometry relative="1" as="geometry" />
        </mxCell>
        <mxCell id="R3BVm1DwCjUrXEctZYhF-21" value="Exiba o valor da variável C para o usuário" style="whiteSpace=wrap;html=1;fillColor=#dae8fc;strokeColor=#6c8ebf;" vertex="1" parent="1">
          <mxGeometry x="440" y="600" width="120" height="60" as="geometry" />
        </mxCell>
        <mxCell id="R3BVm1DwCjUrXEctZYhF-23" value="Fim" style="rounded=1;whiteSpace=wrap;html=1;fillColor=#fff2cc;strokeColor=#d6b656;" vertex="1" parent="1">
          <mxGeometry x="240" y="600" width="120" height="60" as="geometry" />
        </mxCell>
      </root>
    </mxGraphModel>
  </diagram>
</mxfile>
